{"accessors":[{"bufferView":1,"componentType":5126,"count":2594,"max":[0.9392263293266296,0.9256675243377686,1.3882087469100952],"min":[-0.913746178150177,-0.927304744720459,-1.5993156433105469],"type":"VEC3","byteOffset":0},{"bufferView":1,"byteOffset":31128,"componentType":5126,"count":2594,"max":[0.9999897480010986,0.9999897480010986,1],"min":[-0.9999897480010986,-0.9999897480010986,-0.9977537989616394],"type":"VEC3"},{"bufferView":0,"componentType":5125,"count":15552,"max":[2593],"min":[0],"type":"SCALAR","byteOffset":0}],"asset":{"extras":{"author":"Eric Fan (https://sketchfab.com/ericfan1992)","license":"CC-BY-4.0 (http://creativecommons.org/licenses/by/4.0/)","source":"https://sketchfab.com/models/752864d649c747e38f68e89b4954b63a","title":"Lemon"},"generator":"Sketchfab-3.18.7","version":"2.0"},"bufferViews":[{"buffer":0,"byteLength":62208,"byteOffset":0,"name":"floatBufferViews","target":34963},{"buffer":0,"byteLength":62256,"byteOffset":62208,"byteStride":12,"name":"floatBufferViews","target":34962}],"buffers":[{"byteLength":124464,"uri":"data:application/octet-stream;base64,"}],"materials":[{"doubleSided":true,"emissiveFactor":[0,0,0],"name":"Lemon","pbrMetallicRoughness":{"baseColorFactor":[0.8,0.614512,0.116302,1],"metallicFactor":0,"roughnessFactor":0.6},"alphaMode":"OPAQUE"}],"meshes":[{"name":"Lemonwhole_Lemon_0","primitives":[{"attributes":{"NORMAL":1,"POSITION":0},"indices":2,"material":0,"mode":4}]}],"nodes":[{"children":[1],"name":"RootNode (gltf orientation matrix)","rotation":[-0.7071067811865475,0,0,0.7071067811865476],"translation":[0,0,0],"scale":[1,1,1]},{"children":[2],"name":"RootNode (model correction matrix)"},{"children":[3],"matrix":[1,0,0,0,0,0,1,0,0,-1,0,0,0,0,0,1],"name":"b58488e7c2d94123b5fc52323a72404d.fbx"},{"children":[4],"name":"RootNode"},{"children":[5],"matrix":[2.794089735291257e-9,-0.03700884059071528,1.102949008142689e-9,0,-1.0441302974556525e-8,-1.1029497929247674e-9,-0.03700884059071391,0,0.037008840590713826,2.794089420967545e-9,-1.0441303054678254e-8,0,-0.059123363345861435,1.0432398319244385,-0.4936201274394989,1],"name":"Lemonwhole"},{"mesh":0,"name":"Lemonwhole_Lemon_0"}],"scene":0,"scenes":[{"name":"OSG_Scene","nodes":[0]}]}
